<?xml version="1.0" standalone="no"?>
<!DOCTYPE svg PUBLIC "-//W3C//DTD SVG 20010904//EN"
 "http://www.w3.org/TR/2001/REC-SVG-20010904/DTD/svg10.dtd">
<svg version="1.0" xmlns="http://www.w3.org/2000/svg"
 width="1024.000000pt" height="1024.000000pt" viewBox="0 0 1024.000000 1024.000000"
 preserveAspectRatio="xMidYMid meet">
<metadata>
Created by potrace 1.14, written by Peter Selinger 2001-2017
</metadata>
<g transform="translate(0.000000,1024.000000) scale(0.100000,-0.100000)"
fill="#000000" stroke="none">
<path d="M4091 8969 c-199 -23 -383 -104 -524 -229 -27 -24 -140 -145 -251
-269 -298 -332 -368 -392 -506 -437 -50 -16 -126 -18 -835 -25 -841 -7 -863
-8 -1075 -64 -124 -33 -299 -119 -391 -193 -220 -175 -344 -438 -379 -803 -8
-80 -10 -799 -7 -2389 3 -2107 4 -2281 20 -2360 31 -152 57 -233 112 -346 150
-310 401 -483 807 -557 l123 -22 3935 0 3935 0 120 22 c392 71 650 242 797
529 76 149 117 295 138 494 14 134 13 4503 0 4641 -62 606 -390 946 -995 1029
-61 9 -340 15 -875 19 -772 7 -786 7 -851 29 -133 44 -196 99 -517 458 -94
105 -195 213 -224 239 -155 139 -317 209 -543 235 -110 12 -1907 11 -2014 -1z
m1909 -663 c135 -35 204 -79 341 -216 69 -69 202 -210 295 -315 93 -104 196
-211 229 -238 73 -60 193 -119 300 -149 79 -22 94 -22 935 -28 951 -7 926 -6
1070 -77 141 -69 237 -199 278 -373 16 -70 17 -222 17 -2270 0 -2464 6 -2262
-75 -2426 -67 -138 -186 -228 -356 -271 -65 -17 -268 -18 -3914 -18 -3646 0
-3849 1 -3914 18 -170 43 -289 133 -356 271 -81 164 -75 -38 -75 2426 0 2048
1 2200 17 2270 51 220 187 362 405 422 76 21 98 22 923 28 957 7 906 3 1085
90 58 28 126 72 161 102 34 29 158 161 276 293 286 320 353 380 480 432 123
49 170 52 1023 49 712 -2 796 -4 855 -20z"/>
<path d="M4168 7159 c-125 -18 -198 -82 -198 -174 0 -61 16 -93 96 -190 272
-332 397 -592 411 -861 3 -61 3 -128 -1 -149 l-7 -38 -48 74 c-155 241 -449
368 -538 232 -16 -24 -18 -55 -18 -258 -1 -223 -1 -233 -28 -319 -15 -49 -57
-161 -94 -250 -152 -371 -192 -549 -193 -841 0 -364 100 -631 324 -864 223
-231 514 -368 890 -417 183 -24 509 -15 672 20 513 108 885 390 1099 831 129
267 183 551 172 910 -12 362 -83 671 -221 960 -370 773 -1215 1298 -2151 1338
-60 3 -136 1 -167 -4z m318 -264 c351 -46 697 -162 959 -320 211 -127 444
-337 584 -525 218 -294 347 -632 392 -1030 17 -153 6 -457 -21 -585 -122 -573
-478 -937 -1034 -1057 -86 -19 -133 -22 -311 -22 -178 0 -227 3 -322 22 -482
97 -785 353 -890 752 -22 80 -25 118 -26 245 -1 247 37 403 170 714 125 290
162 427 163 596 l1 70 52 -56 c77 -81 137 -203 187 -377 25 -85 47 -104 99
-82 86 35 161 177 208 392 24 111 24 355 -1 488 -47 256 -160 499 -330 708
l-67 82 35 0 c19 0 88 -7 152 -15z"/>
<path d="M7885 6686 c-320 -102 -464 -430 -318 -721 36 -71 144 -173 223 -211
291 -142 625 8 715 320 13 45 16 84 13 157 -4 85 -9 106 -40 171 -63 132 -182
237 -316 278 -74 23 -214 26 -277 6z"/>
</g>
</svg>
