<?xml version="1.0" standalone="no"?>
<!DOCTYPE svg PUBLIC "-//W3C//DTD SVG 20010904//EN"
 "http://www.w3.org/TR/2001/REC-SVG-20010904/DTD/svg10.dtd">
<svg version="1.0" xmlns="http://www.w3.org/2000/svg"
 width="824.000000pt" height="824.000000pt" viewBox="0 0 824.000000 824.000000"
 preserveAspectRatio="xMidYMid meet">
<metadata>
Created by potrace 1.14, written by Peter Selinger 2001-2017
</metadata>
<g transform="translate(0.000000,824.000000) scale(0.100000,-0.100000)"
fill="#000000" stroke="none">
<path d="M2175 8233 c-427 -10 -741 -48 -955 -115 -317 -100 -657 -357 -872
-659 -76 -106 -173 -288 -211 -394 -55 -155 -95 -389 -118 -690 -16 -214 -24
-3638 -10 -4153 12 -399 20 -522 47 -702 41 -274 118 -478 261 -692 81 -121
153 -206 268 -316 243 -232 526 -381 838 -441 170 -33 371 -50 722 -62 437
-14 4083 -6 4270 9 435 37 678 102 913 243 235 141 447 343 599 569 188 281
256 515 295 1020 19 244 19 4288 0 4545 -33 441 -98 691 -243 933 -172 287
-426 530 -719 690 -209 113 -433 168 -845 203 -90 8 -739 12 -2125 13 -1097 1
-2049 1 -2115 -1z m3380 -2716 c218 -21 230 -23 227 -42 -4 -26 -39 -55 -75
-62 l-30 -6 7 -141 c21 -438 92 -857 188 -1114 l20 -54 73 109 c136 205 347
580 421 753 15 36 29 66 30 68 1 2 104 -56 228 -130 218 -129 225 -134 207
-151 -10 -10 -38 -21 -62 -24 -41 -6 -56 -18 -204 -162 -211 -205 -371 -339
-631 -527 l-28 -21 42 -83 c76 -149 149 -249 281 -381 186 -186 406 -322 678
-421 51 -18 93 -39 93 -46 0 -7 -12 -17 -27 -23 -103 -41 -148 -68 -194 -116
-51 -53 -94 -132 -105 -190 -3 -18 -10 -33 -15 -33 -5 0 -49 22 -97 49 -258
146 -460 345 -605 597 -142 247 -244 603 -297 1043 -23 183 -28 209 -29 139
-1 -75 -29 -272 -57 -407 -136 -661 -520 -1073 -1280 -1371 -70 -27 -133 -50
-140 -50 -17 0 -41 43 -27 47 5 2 60 34 121 71 333 200 599 461 750 735 144
260 223 580 252 1012 5 83 10 331 10 553 l0 402 23 -1 c12 0 126 -10 252 -22z
m-2555 -7 c107 -11 202 -20 212 -20 46 0 -7 -73 -63 -85 l-29 -7 0 -219 0
-219 101 0 102 0 80 86 c44 47 85 83 92 80 10 -3 260 -190 315 -233 9 -8 -45
-43 -82 -55 l-38 -11 0 -449 c0 -246 2 -448 4 -448 2 0 29 45 61 100 31 55 59
100 63 100 7 0 118 -127 182 -208 l34 -43 -22 -21 c-22 -22 -26 -22 -452 -26
-236 -3 -430 -6 -430 -8 0 -3 13 -33 29 -68 118 -261 386 -478 751 -607 124
-44 134 -60 53 -89 -135 -47 -213 -147 -230 -292 -3 -27 -10 -48 -15 -48 -25
0 -165 110 -240 188 -97 101 -161 194 -230 333 -57 116 -128 324 -155 458
l-19 94 -32 -101 c-40 -125 -125 -295 -191 -383 -71 -93 -224 -236 -324 -303
-162 -108 -370 -201 -590 -265 -58 -17 -108 -31 -111 -31 -3 0 -10 9 -16 20
-9 17 -3 23 64 54 41 19 118 59 170 90 380 224 599 518 690 928 l6 28 -317 2
-317 3 -12 40 c-10 33 -13 -13 -13 -275 -1 -173 -5 -320 -9 -326 -23 -35 -193
-94 -274 -94 l-37 0 -3 103 -3 102 -110 0 -110 0 -3 -112 -3 -113 -44 -26
c-58 -33 -135 -54 -207 -54 l-58 0 0 1121 0 1120 23 -7 c12 -4 89 -33 172 -65
138 -54 156 -59 230 -59 l80 -1 80 86 80 85 159 -126 159 -127 -24 -18 c-13
-11 -41 -24 -61 -31 l-38 -11 0 -564 0 -563 85 0 85 0 0 585 c0 461 3 585 13
585 6 0 86 -29 176 -65 158 -63 166 -65 252 -65 l89 0 0 285 c0 226 3 285 13
285 7 0 100 -9 207 -20z m1810 -570 c17 -45 43 -129 58 -188 24 -96 27 -125
27 -282 0 -166 -2 -179 -28 -255 -74 -209 -199 -335 -334 -335 -116 0 -193 73
-193 181 0 61 34 116 134 214 101 100 144 165 192 293 41 111 63 215 71 347 5
91 8 105 24 105 13 0 26 -22 49 -80z"/>
<path d="M1530 4720 l0 -380 115 0 115 0 0 380 0 380 -115 0 -115 0 0 -380z"/>
<path d="M2560 4400 l0 -480 99 0 99 0 6 48 c3 26 9 242 12 480 l6 432 -111 0
-111 0 0 -480z"/>
<path d="M3125 4868 c-2 -7 -6 -204 -9 -438 -3 -234 -8 -444 -12 -467 l-6 -43
131 0 131 0 -2 478 -3 477 -113 3 c-84 2 -113 -1 -117 -10z"/>
<path d="M1530 3865 l0 -385 115 0 115 0 0 385 0 385 -115 0 -115 0 0 -385z"/>
</g>
</svg>
